STARTFONT 2.1
COMMENT $XConsortium: lubB14.bdf,v 1.10 94/04/02 16:24:13 gildea Exp $
COMMENT  (c) Copyright Bigelow & Holmes 1986, 1985. Lucida is a registered
COMMENT  trademark of Bigelow & Holmes. See LEGAL NOTICE file for terms 
COMMENT  of the license. 
COMMENT  
COMMENT  Translation to ISO8859-2 by Cub Soft;  Petr.Kolar@vslib.cz
COMMENT  
FONT -B&H-LucidaBright-DemiBold-R-Normal--20-140-100-100-P-118-ISO8859-2
SIZE 14 100 100
FONTBOUNDINGBOX 35 23 -12 -4
STARTPROPERTIES 20
COMMENT Begin LogicalFontDescription
FONTNAME_REGISTRY ""
FOUNDRY "B&H"
FAMILY_NAME "LucidaBright"
WEIGHT_NAME "DemiBold"
SLANT "R"
SETWIDTH_NAME "Normal"
ADD_STYLE_NAME ""
PIXEL_SIZE 20
POINT_SIZE 140
RESOLUTION_X 100
RESOLUTION_Y 100
SPACING "P"
AVERAGE_WIDTH 118
CHARSET_REGISTRY "ISO8859"
CHARSET_ENCODING "2"
COMMENT END LogicalFontDescription
FONT_ASCENT 18
FONT_DESCENT 5
DEFAULT_CHAR 0
COPYRIGHT "Copyright Bigelow & Holmes 1986, 1985., Copyright 1996 Cub Soft"
FACE_NAME "Lucida Bright Demibold"
ENDPROPERTIES
CHARS 191
STARTCHAR space
ENCODING 32
SWIDTH 333 0
DWIDTH 7 0
BBX 1 1 0 0
BITMAP
00
ENDCHAR
STARTCHAR exclam
ENCODING 33
SWIDTH 265 0
DWIDTH 5 0
BBX 3 15 1 0
BITMAP
e0
e0
e0
e0
e0
e0
e0
40
40
40
40
00
e0
e0
e0
ENDCHAR
STARTCHAR quotedbl
ENCODING 34
SWIDTH 461 0
DWIDTH 9 0
BBX 7 6 1 9
BITMAP
ee
ee
ee
44
44
44
ENDCHAR
STARTCHAR numbersign
ENCODING 35
SWIDTH 663 0
DWIDTH 13 0
BBX 12 15 1 0
BITMAP
0440
0440
0440
0440
0880
7ff0
0880
0880
1100
1100
ffe0
1100
2200
2200
2200
ENDCHAR
STARTCHAR dollar
ENCODING 36
SWIDTH 623 0
DWIDTH 12 0
BBX 9 18 2 -2
BITMAP
0800
3f80
7980
e880
e800
e800
7800
7800
1e00
0f00
0f80
0b80
8b80
8b80
cb00
fe00
0800
0800
ENDCHAR
STARTCHAR percent
ENCODING 37
SWIDTH 759 0
DWIDTH 15 0
BBX 15 15 0 0
BITMAP
3806
4408
c610
c630
c660
c640
4480
3900
0238
0444
0cc6
18c6
10c6
2044
c038
ENDCHAR
STARTCHAR ampersand
ENCODING 38
SWIDTH 765 0
DWIDTH 15 0
BBX 14 15 1 0
BITMAP
0f00
19c0
39c0
39c0
1980
1f00
1c00
7e7c
6618
e718
e390
e3f0
f1e0
70f0
1f7c
ENDCHAR
STARTCHAR apostrophe
ENCODING 39
SWIDTH 265 0
DWIDTH 5 0
BBX 3 6 1 9
BITMAP
e0
e0
e0
60
60
c0
ENDCHAR
STARTCHAR parenleft
ENCODING 40
SWIDTH 327 0
DWIDTH 7 0
BBX 5 19 1 -4
BITMAP
08
18
30
30
60
60
e0
e0
e0
e0
e0
e0
e0
60
60
30
30
18
08
ENDCHAR
STARTCHAR parenright
ENCODING 41
SWIDTH 327 0
DWIDTH 7 0
BBX 5 19 1 -4
BITMAP
80
c0
60
60
30
30
38
38
38
38
38
38
38
30
30
60
60
c0
80
ENDCHAR
STARTCHAR asterisk
ENCODING 42
SWIDTH 434 0
DWIDTH 9 0
BBX 8 7 0 8
BITMAP
18
59
ff
66
3c
66
24
ENDCHAR
STARTCHAR plus
ENCODING 43
SWIDTH 623 0
DWIDTH 12 0
BBX 11 13 1 0
BITMAP
0400
0400
0400
0400
0400
0400
ffe0
0400
0400
0400
0400
0400
0400
ENDCHAR
STARTCHAR comma
ENCODING 44
SWIDTH 265 0
DWIDTH 5 0
BBX 3 7 1 -3
BITMAP
e0
e0
e0
e0
60
60
c0
ENDCHAR
STARTCHAR minus
ENCODING 45
SWIDTH 623 0
DWIDTH 12 0
BBX 12 1 0 6
BITMAP
fff0
ENDCHAR
STARTCHAR period
ENCODING 46
SWIDTH 265 0
DWIDTH 5 0
BBX 3 3 1 0
BITMAP
e0
e0
e0
ENDCHAR
STARTCHAR slash
ENCODING 47
SWIDTH 527 0
DWIDTH 11 0
BBX 11 18 0 -3
BITMAP
0060
0040
0080
0080
0100
0100
0200
0200
0400
0400
0800
0800
1000
1000
2000
2000
4000
c000
ENDCHAR
STARTCHAR zero
ENCODING 48
SWIDTH 623 0
DWIDTH 12 0
BBX 11 15 1 0
BITMAP
1f00
3180
71c0
60c0
e0e0
e0e0
e0e0
e0e0
e0e0
e0e0
e0e0
60c0
71c0
3180
1f00
ENDCHAR
STARTCHAR one
ENCODING 49
SWIDTH 623 0
DWIDTH 12 0
BBX 9 15 2 0
BITMAP
fc00
1c00
1c00
1c00
1c00
1c00
1c00
1c00
1c00
1c00
1c00
1c00
1c00
3e00
ff80
ENDCHAR
STARTCHAR two
ENCODING 50
SWIDTH 623 0
DWIDTH 12 0
BBX 10 15 1 0
BITMAP
7f00
c380
c1c0
81c0
01c0
01c0
0380
0300
0400
1800
3000
6000
7fc0
ffc0
ffc0
ENDCHAR
STARTCHAR three
ENCODING 51
SWIDTH 623 0
DWIDTH 12 0
BBX 9 15 2 0
BITMAP
fe00
c700
8380
0380
0380
0300
0600
7e00
0f00
0380
0380
0380
8380
8700
fc00
ENDCHAR
STARTCHAR four
ENCODING 52
SWIDTH 623 0
DWIDTH 12 0
BBX 12 15 0 0
BITMAP
01c0
03c0
03c0
05c0
09c0
11c0
31c0
61c0
41c0
fff0
fff0
01c0
01c0
01c0
07f0
ENDCHAR
STARTCHAR five
ENCODING 53
SWIDTH 623 0
DWIDTH 12 0
BBX 9 15 2 0
BITMAP
ff80
ff80
8000
8000
8000
8000
fc00
0f00
0780
0380
0380
0380
8380
8700
fc00
ENDCHAR
STARTCHAR six
ENCODING 54
SWIDTH 623 0
DWIDTH 12 0
BBX 11 15 1 0
BITMAP
0fc0
3840
7040
7000
e000
e000
ef80
f1c0
e0e0
e0e0
e0e0
60e0
70c0
31c0
1f00
ENDCHAR
STARTCHAR seven
ENCODING 55
SWIDTH 623 0
DWIDTH 12 0
BBX 10 15 2 0
BITMAP
ffc0
ffc0
ffc0
0080
0100
0300
0600
0400
0c00
1800
1800
3800
3000
7000
7000
ENDCHAR
STARTCHAR eight
ENCODING 56
SWIDTH 623 0
DWIDTH 12 0
BBX 11 15 1 0
BITMAP
1f00
3380
71c0
71c0
71c0
7980
3e00
1f80
63c0
e1e0
e0e0
e0e0
e0e0
71c0
1f00
ENDCHAR
STARTCHAR nine
ENCODING 57
SWIDTH 623 0
DWIDTH 12 0
BBX 11 15 1 0
BITMAP
1f00
7180
61c0
e0c0
e0e0
e0e0
e0e0
71e0
3ee0
00e0
00e0
01c0
41c0
4380
7e00
ENDCHAR
STARTCHAR colon
ENCODING 58
SWIDTH 265 0
DWIDTH 5 0
BBX 3 11 1 0
BITMAP
e0
e0
e0
00
00
00
00
00
e0
e0
e0
ENDCHAR
STARTCHAR semicolon
ENCODING 59
SWIDTH 265 0
DWIDTH 5 0
BBX 3 14 1 -3
BITMAP
e0
e0
e0
00
00
00
00
00
e0
e0
e0
60
60
c0
ENDCHAR
STARTCHAR less
ENCODING 60
SWIDTH 623 0
DWIDTH 12 0
BBX 11 13 -1 0
BITMAP
0020
0060
0180
0600
1800
3000
c000
3000
1800
0600
0180
0060
0020
ENDCHAR
STARTCHAR equal
ENCODING 61
SWIDTH 623 0
DWIDTH 12 0
BBX 12 6 0 3
BITMAP
fff0
0000
0000
0000
0000
fff0
ENDCHAR
STARTCHAR greater
ENCODING 62
SWIDTH 623 0
DWIDTH 12 0
BBX 11 13 0 0
BITMAP
8000
c000
3000
0c00
0300
0180
0060
0180
0300
0c00
3000
c000
8000
ENDCHAR
STARTCHAR question
ENCODING 63
SWIDTH 505 0
DWIDTH 10 0
BBX 9 15 1 0
BITMAP
fe00
c700
8380
0380
0380
0300
0400
0c00
1800
3800
3800
0000
3800
3800
3800
ENDCHAR
STARTCHAR at
ENCODING 64
SWIDTH 861 0
DWIDTH 17 0
BBX 16 15 1 0
BITMAP
03f0
0e0c
1806
21c2
6331
4631
8631
8c31
8c61
8ce2
8ce4
4778
6000
3020
0fc0
ENDCHAR
STARTCHAR A
ENCODING 65
SWIDTH 795 0
DWIDTH 16 0
BBX 16 15 0 0
BITMAP
0180
0180
03c0
03c0
07e0
04e0
04f0
0870
0870
1ff8
1038
201c
201c
601e
f03f
ENDCHAR
STARTCHAR B
ENCODING 66
SWIDTH 639 0
DWIDTH 13 0
BBX 12 15 0 0
BITMAP
ff80
39c0
38e0
38e0
38e0
38c0
3980
3f80
38e0
3870
3870
3870
3870
38e0
ffc0
ENDCHAR
STARTCHAR C
ENCODING 67
SWIDTH 711 0
DWIDTH 14 0
BBX 13 15 1 0
BITMAP
07f0
1c18
3808
7008
e000
e000
e000
e000
e000
e000
e000
7000
3800
1c08
07f0
ENDCHAR
STARTCHAR D
ENCODING 68
SWIDTH 794 0
DWIDTH 16 0
BBX 15 15 0 0
BITMAP
ffe0
3878
381c
381c
380e
380e
380e
380e
380e
380e
380c
381c
3818
3830
ffe0
ENDCHAR
STARTCHAR E
ENCODING 69
SWIDTH 601 0
DWIDTH 12 0
BBX 12 15 0 0
BITMAP
ffe0
3820
3820
3800
3800
3800
3840
3fc0
3840
3800
3800
3800
3810
3830
fff0
ENDCHAR
STARTCHAR F
ENCODING 70
SWIDTH 584 0
DWIDTH 12 0
BBX 11 15 0 0
BITMAP
ffe0
3820
3820
3800
3800
3800
3840
3fc0
3840
3800
3800
3800
3800
3800
fe00
ENDCHAR
STARTCHAR G
ENCODING 71
SWIDTH 753 0
DWIDTH 15 0
BBX 14 15 1 0
BITMAP
0fe0
1c30
3010
7010
e000
e000
e000
e000
e1fc
e070
e070
7070
7070
3870
0fe0
ENDCHAR
STARTCHAR H
ENCODING 72
SWIDTH 798 0
DWIDTH 16 0
BBX 16 15 0 0
BITMAP
fe7f
381c
381c
381c
381c
381c
381c
3ffc
381c
381c
381c
381c
381c
381c
fe7f
ENDCHAR
STARTCHAR I
ENCODING 73
SWIDTH 349 0
DWIDTH 7 0
BBX 7 15 0 0
BITMAP
fe
38
38
38
38
38
38
38
38
38
38
38
38
38
fe
ENDCHAR
STARTCHAR J
ENCODING 74
SWIDTH 452 0
DWIDTH 9 0
BBX 9 18 0 -3
BITMAP
3f80
0e00
0e00
0e00
0e00
0e00
0e00
0e00
0e00
0e00
0e00
0e00
0e00
0e00
0e00
8e00
9c00
f800
ENDCHAR
STARTCHAR K
ENCODING 75
SWIDTH 747 0
DWIDTH 15 0
BBX 15 15 0 0
BITMAP
fc3c
3830
3820
3840
3880
3900
3b00
3f00
3f80
3bc0
39e0
38f0
3878
387c
fcfe
ENDCHAR
STARTCHAR L
ENCODING 76
SWIDTH 584 0
DWIDTH 12 0
BBX 12 15 0 0
BITMAP
fe00
3800
3800
3800
3800
3800
3800
3800
3800
3800
3800
3800
3830
3810
fff0
ENDCHAR
STARTCHAR M
ENCODING 77
SWIDTH 904 0
DWIDTH 18 0
BBX 18 15 0 0
BITMAP
f807c0
3c0700
3c0f00
3e0f00
2e1f00
2e1700
273700
272700
27a700
23c700
23c700
218700
218700
200700
f00fc0
ENDCHAR
STARTCHAR N
ENCODING 78
SWIDTH 788 0
DWIDTH 16 0
BBX 15 15 0 0
BITMAP
f03e
3808
3c08
3c08
3e08
2f08
2788
2388
23c8
21e8
20e8
20f8
2078
2038
f818
ENDCHAR
STARTCHAR O
ENCODING 79
SWIDTH 810 0
DWIDTH 16 0
BBX 15 15 1 0
BITMAP
0fe0
1c70
3018
701c
e00e
e00e
e00e
e00e
e00e
e00e
e00e
701c
3018
1c70
0fe0
ENDCHAR
STARTCHAR P
ENCODING 80
SWIDTH 614 0
DWIDTH 12 0
BBX 12 15 0 0
BITMAP
ffc0
38e0
3870
3870
3870
3870
3860
38e0
3f80
3800
3800
3800
3800
3800
fe00
ENDCHAR
STARTCHAR Q
ENCODING 81
SWIDTH 810 0
DWIDTH 16 0
BBX 17 19 1 -4
BITMAP
0fe000
1c7000
301800
701c00
e00e00
e00e00
e00e00
e00e00
e00e00
e00e00
e00e00
701c00
301c00
1c7800
0fe000
007800
003e00
000f80
000600
ENDCHAR
STARTCHAR R
ENCODING 82
SWIDTH 720 0
DWIDTH 14 0
BBX 15 15 0 0
BITMAP
ffc0
38e0
3870
3870
3870
3870
39e0
3fc0
3bc0
39e0
38e0
38f0
3878
387c
fc3e
ENDCHAR
STARTCHAR S
ENCODING 83
SWIDTH 556 0
DWIDTH 11 0
BBX 10 15 1 0
BITMAP
3f00
7180
e080
e080
e000
f800
7e00
3f00
0f80
03c0
01c0
81c0
81c0
c380
7e00
ENDCHAR
STARTCHAR T
ENCODING 84
SWIDTH 714 0
DWIDTH 14 0
BBX 13 15 1 0
BITMAP
fff8
c708
8708
0700
0700
0700
0700
0700
0700
0700
0700
0700
0700
0700
1fc0
ENDCHAR
STARTCHAR U
ENCODING 85
SWIDTH 747 0
DWIDTH 15 0
BBX 15 15 0 0
BITMAP
fe3e
3808
3808
3808
3808
3808
3808
3808
3808
3808
3808
3808
1c10
1c10
07e0
ENDCHAR
STARTCHAR V
ENCODING 86
SWIDTH 753 0
DWIDTH 15 0
BBX 15 15 0 0
BITMAP
fc1e
780c
3808
3c08
1c10
1c10
0e30
0e20
0f20
0740
0740
0380
0380
0380
0100
ENDCHAR
STARTCHAR W
ENCODING 87
SWIDTH 955 0
DWIDTH 19 0
BBX 19 15 0 0
BITMAP
fc61e0
7060c0
787080
387080
38f080
3cf100
1cb900
1d3900
1d3a00
1f1e00
0e1e00
0e1c00
0e0c00
040c00
040c00
ENDCHAR
STARTCHAR X
ENCODING 88
SWIDTH 702 0
DWIDTH 14 0
BBX 14 15 0 0
BITMAP
fe3c
3818
3c10
1c20
0e40
0fc0
0780
0780
07c0
09c0
19e0
10e0
20f0
6078
f0fc
ENDCHAR
STARTCHAR Y
ENCODING 89
SWIDTH 717 0
DWIDTH 14 0
BBX 15 15 0 0
BITMAP
fe1e
780c
3c08
1c10
1e30
0f20
0740
07c0
0380
0380
0380
0380
0380
0380
0fe0
ENDCHAR
STARTCHAR Z
ENCODING 90
SWIDTH 639 0
DWIDTH 13 0
BBX 11 15 1 0
BITMAP
7fe0
41e0
41c0
03c0
0380
0700
0f00
0e00
1e00
1c00
3800
7800
7020
f060
ffe0
ENDCHAR
STARTCHAR bracketleft
ENCODING 91
SWIDTH 327 0
DWIDTH 7 0
BBX 5 18 1 -3
BITMAP
f8
e0
e0
e0
e0
e0
e0
e0
e0
e0
e0
e0
e0
e0
e0
e0
e0
f8
ENDCHAR
STARTCHAR backslash
ENCODING 92
SWIDTH 527 0
DWIDTH 11 0
BBX 11 18 0 -3
BITMAP
c000
4000
2000
2000
1000
1000
0800
0800
0400
0400
0200
0200
0100
0100
0080
0080
0040
0060
ENDCHAR
STARTCHAR bracketright
ENCODING 93
SWIDTH 327 0
DWIDTH 7 0
BBX 5 18 0 -3
BITMAP
f8
38
38
38
38
38
38
38
38
38
38
38
38
38
38
38
38
f8
ENDCHAR
STARTCHAR asciicircum
ENCODING 94
SWIDTH 623 0
DWIDTH 12 0
BBX 12 12 0 2
BITMAP
0200
0600
0600
0900
0900
1080
1080
2040
2040
6060
4020
c030
ENDCHAR
STARTCHAR underscore
ENCODING 95
SWIDTH 500 0
DWIDTH 10 0
BBX 8 1 1 -2
BITMAP
ff
ENDCHAR
STARTCHAR grave
ENCODING 96
SWIDTH 617 0
DWIDTH 12 0
BBX 5 3 3 12
BITMAP
e0
30
18
ENDCHAR
STARTCHAR a
ENCODING 97
SWIDTH 556 0
DWIDTH 11 0
BBX 10 11 1 0
BITMAP
3e00
6300
4380
0380
0380
3f80
f380
e380
e380
e380
7dc0
ENDCHAR
STARTCHAR b
ENCODING 98
SWIDTH 640 0
DWIDTH 13 0
BBX 13 15 0 0
BITMAP
f800
3800
3800
3800
39e0
3bf0
3c70
3838
3838
3838
3838
3838
3870
3c70
3bc0
ENDCHAR
STARTCHAR c
ENCODING 99
SWIDTH 541 0
DWIDTH 11 0
BBX 9 11 1 0
BITMAP
1f80
7080
6080
e000
e000
e000
e000
e000
7000
3880
1f80
ENDCHAR
STARTCHAR d
ENCODING 100
SWIDTH 652 0
DWIDTH 13 0
BBX 13 15 0 0
BITMAP
03e0
00e0
00e0
00e0
1ee0
71e0
60e0
e0e0
e0e0
e0e0
e0e0
e0e0
71e0
7ef0
3cf8
ENDCHAR
STARTCHAR e
ENCODING 101
SWIDTH 568 0
DWIDTH 11 0
BBX 10 11 0 0
BITMAP
1f00
7380
6180
e1c0
e1c0
ffc0
e000
e000
7000
3840
1fc0
ENDCHAR
STARTCHAR f
ENCODING 102
SWIDTH 416 0
DWIDTH 8 0
BBX 9 15 0 0
BITMAP
1f80
3880
3880
3800
ff00
3800
3800
3800
3800
3800
3800
3800
3800
3800
fe00
ENDCHAR
STARTCHAR g
ENCODING 103
SWIDTH 599 0
DWIDTH 12 0
BBX 12 15 0 -4
BITMAP
1ff0
31a0
71c0
71c0
71c0
3180
1f00
1000
3000
7fc0
1fe0
e0e0
e0e0
f1c0
3f00
ENDCHAR
STARTCHAR h
ENCODING 104
SWIDTH 654 0
DWIDTH 13 0
BBX 14 15 0 0
BITMAP
f800
3800
3800
3800
39e0
3bf0
3c70
3870
3870
3870
3870
3870
3870
3870
fffc
ENDCHAR
STARTCHAR i
ENCODING 105
SWIDTH 325 0
DWIDTH 7 0
BBX 7 15 0 0
BITMAP
38
38
38
00
f8
38
38
38
38
38
38
38
38
38
fe
ENDCHAR
STARTCHAR j
ENCODING 106
SWIDTH 355 0
DWIDTH 7 0
BBX 7 19 0 -4
BITMAP
0e
0e
0e
00
3e
0e
0e
0e
0e
0e
0e
0e
0e
0e
0e
0e
8e
8e
fc
ENDCHAR
STARTCHAR k
ENCODING 107
SWIDTH 654 0
DWIDTH 12 0
BBX 13 15 0 0
BITMAP
f800
3800
3800
3800
38f0
3860
3880
3900
3b00
3f80
3b80
3bc0
39e0
38f0
fcf8
ENDCHAR
STARTCHAR l
ENCODING 108
SWIDTH 325 0
DWIDTH 7 0
BBX 7 15 0 0
BITMAP
f8
38
38
38
38
38
38
38
38
38
38
38
38
38
fe
ENDCHAR
STARTCHAR m
ENCODING 109
SWIDTH 967 0
DWIDTH 19 0
BBX 19 11 0 0
BITMAP
fbcf00
3fff80
3cf380
38e380
38e380
38e380
38e380
38e380
38e380
38e380
fdf7e0
ENDCHAR
STARTCHAR n
ENCODING 110
SWIDTH 654 0
DWIDTH 13 0
BBX 14 11 0 0
BITMAP
f9e0
7bf0
3c70
3870
3870
3870
3870
3870
3870
3870
fffc
ENDCHAR
STARTCHAR o
ENCODING 111
SWIDTH 617 0
DWIDTH 12 0
BBX 11 11 1 0
BITMAP
1f00
71c0
71c0
e0e0
e0e0
e0e0
e0e0
e0e0
71c0
31c0
1f00
ENDCHAR
STARTCHAR p
ENCODING 112
SWIDTH 652 0
DWIDTH 13 0
BBX 13 15 0 -4
BITMAP
f9e0
7bf0
3c70
3838
3838
3838
3838
3838
3870
3c70
3bc0
3800
3800
3800
fe00
ENDCHAR
STARTCHAR q
ENCODING 113
SWIDTH 640 0
DWIDTH 13 0
BBX 13 15 0 -4
BITMAP
1ee0
71e0
70e0
e0e0
e0e0
e0e0
e0e0
e0e0
71e0
7ee0
3ce0
00e0
00e0
00e0
03f8
ENDCHAR
STARTCHAR r
ENCODING 114
SWIDTH 462 0
DWIDTH 9 0
BBX 9 11 0 0
BITMAP
f980
3f80
3c80
3800
3800
3800
3800
3800
3800
3800
fe00
ENDCHAR
STARTCHAR s
ENCODING 115
SWIDTH 525 0
DWIDTH 10 0
BBX 9 11 1 0
BITMAP
3f00
7100
e100
f000
fc00
7f00
1f80
8780
8380
c700
7e00
ENDCHAR
STARTCHAR t
ENCODING 116
SWIDTH 389 0
DWIDTH 8 0
BBX 7 14 0 0
BITMAP
30
70
70
fe
70
70
70
70
70
70
70
70
70
3e
ENDCHAR
STARTCHAR u
ENCODING 117
SWIDTH 654 0
DWIDTH 13 0
BBX 14 11 0 0
BITMAP
f9f0
3870
3870
3870
3870
3870
3870
3870
38f0
3f78
1e7c
ENDCHAR
STARTCHAR v
ENCODING 118
SWIDTH 657 0
DWIDTH 13 0
BBX 13 11 0 0
BITMAP
fc78
7830
3820
3c40
1c40
1e80
0e80
0f80
0700
0700
0200
ENDCHAR
STARTCHAR w
ENCODING 119
SWIDTH 880 0
DWIDTH 18 0
BBX 18 11 0 0
BITMAP
fc63c0
706180
38f100
38f100
39f200
1d3a00
1d3a00
1e3c00
0e1c00
0c1c00
040800
ENDCHAR
STARTCHAR x
ENCODING 120
SWIDTH 608 0
DWIDTH 12 0
BBX 12 11 0 0
BITMAP
fcf0
7840
3c80
1d80
0f00
0f00
0f80
1b80
33c0
61e0
f3f0
ENDCHAR
STARTCHAR y
ENCODING 121
SWIDTH 654 0
DWIDTH 13 0
BBX 13 15 0 -4
BITMAP
fc78
7830
3820
3c40
1c40
1c80
0e80
0f00
0700
0600
0600
0400
0c00
1800
3800
ENDCHAR
STARTCHAR z
ENCODING 122
SWIDTH 584 0
DWIDTH 12 0
BBX 10 11 1 0
BITMAP
ffc0
c3c0
8780
0700
0e00
1e00
3c00
3800
7840
f0c0
ffc0
ENDCHAR
STARTCHAR braceleft
ENCODING 123
SWIDTH 366 0
DWIDTH 7 0
BBX 5 18 1 -3
BITMAP
38
70
70
70
70
70
70
70
e0
60
70
70
70
70
70
70
70
38
ENDCHAR
STARTCHAR bar
ENCODING 124
SWIDTH 259 0
DWIDTH 5 0
BBX 1 18 2 -3
BITMAP
80
80
80
80
80
80
80
80
80
80
80
80
80
80
80
80
80
80
ENDCHAR
STARTCHAR braceright
ENCODING 125
SWIDTH 366 0
DWIDTH 7 0
BBX 5 18 1 -3
BITMAP
e0
70
70
70
70
70
70
70
38
30
70
70
70
70
70
70
70
e0
ENDCHAR
STARTCHAR asciitilde
ENCODING 126
SWIDTH 623 0
DWIDTH 12 0
BBX 12 4 0 4
BITMAP
7810
4c10
8320
81e0
ENDCHAR
STARTCHAR nobreakspace
ENCODING 160
SWIDTH 333 0
DWIDTH 7 0
BBX 1 1 0 0
BITMAP
00
ENDCHAR
STARTCHAR Aogonek
ENCODING 161
SWIDTH 795 0
DWIDTH 16 0
BBX 16 18 0 -3
BITMAP
0180
0180
03c0
03c0
07e0
04e0
04f0
0870
0870
1ff8
1038
201c
201c
601e
f03f
0180
0300
03c0
ENDCHAR
STARTCHAR breve
ENCODING 162
SWIDTH 617 0
DWIDTH 12 0
BBX 7 3 3 12
BITMAP
82
7c
38
ENDCHAR
STARTCHAR Lstroke
ENCODING 163
SWIDTH 584 0
DWIDTH 12 0
BBX 12 15 0 0
BITMAP
fe00
3800
3800
3800
3a00
3e00
3800
7800
f800
3800
3800
3800
3810
3830
fff0
ENDCHAR
STARTCHAR currency
ENCODING 164
SWIDTH 623 0
DWIDTH 12 0
BBX 13 13 0 1
BITMAP
8008
4010
3fe0
38e0
3060
2020
2020
2020
3060
38e0
3fe0
4010
8008
ENDCHAR
STARTCHAR Lcaron
ENCODING 165
SWIDTH 584 0
DWIDTH 12 0
BBX 12 17 0 0
BITMAP
00e0
00e0
fee0
3860
3860
38c0
3800
3800
3800
3800
3800
3800
3800
3800
3830
3810
fff0
ENDCHAR
STARTCHAR Sacute
ENCODING 166
SWIDTH 556 0
DWIDTH 11 0
BBX 10 19 1 0
BITMAP
0380
0600
0c00
0000
3f00
7180
e080
e080
e000
f800
7e00
3f00
0f80
03c0
01c0
81c0
81c0
c380
7e00
ENDCHAR
STARTCHAR section
ENCODING 167
SWIDTH 623 0
DWIDTH 12 0
BBX 9 19 2 -4
BITMAP
3f00
7100
e100
e000
f000
fc00
7f00
5f80
c780
c180
f180
fd00
7e00
1f00
0780
0380
8380
c700
fe00
ENDCHAR
STARTCHAR diaeresis
ENCODING 168
SWIDTH 617 0
DWIDTH 12 0
BBX 6 2 3 13
BITMAP
cc
cc
ENDCHAR
STARTCHAR Scaron
ENCODING 169
SWIDTH 556 0
DWIDTH 11 0
BBX 10 19 1 0
BITMAP
6300
3600
1c00
0000
3f00
7180
e080
e080
e000
f800
7e00
3f00
0f80
03c0
01c0
81c0
81c0
c380
7e00
ENDCHAR
STARTCHAR Scedilla
ENCODING 170
SWIDTH 556 0
DWIDTH 11 0
BBX 10 20 1 -5
BITMAP
3f00
7180
e080
e080
e000
f800
7e00
3f00
0f80
03c0
01c0
81c0
81c0
c380
7e00
0800
1800
0c00
0c00
1800
ENDCHAR
STARTCHAR Tcaron
ENCODING 171
SWIDTH 714 0
DWIDTH 14 0
BBX 13 19 1 0
BITMAP
18c0
0d80
0700
0000
fff8
c708
8708
0700
0700
0700
0700
0700
0700
0700
0700
0700
0700
0700
1fc0
ENDCHAR
STARTCHAR Zacute
ENCODING 172
SWIDTH 639 0
DWIDTH 13 0
BBX 11 19 1 0
BITMAP
01c0
0300
0600
0000
7fe0
41e0
41c0
03c0
0380
0700
0f00
0e00
1e00
1c00
3800
7800
7020
f060
ffe0
ENDCHAR
STARTCHAR hyphen
ENCODING 173
SWIDTH 289 0
DWIDTH 6 0
BBX 5 2 0 6
BITMAP
f8
f8
ENDCHAR
STARTCHAR Zcaron
ENCODING 174
SWIDTH 639 0
DWIDTH 13 0
BBX 11 19 1 0
BITMAP
3180
1b00
0e00
0000
7fe0
41e0
41c0
03c0
0380
0700
0f00
0e00
1e00
1c00
3800
7800
7020
f060
ffe0
ENDCHAR
STARTCHAR Zabovedot
ENCODING 175
SWIDTH 639 0
DWIDTH 13 0
BBX 11 19 1 0
BITMAP
0600
0600
0600
0000
7fe0
41e0
41c0
03c0
0380
0700
0f00
0e00
1e00
1c00
3800
7800
7020
f060
ffe0
ENDCHAR
STARTCHAR degree
ENCODING 176
SWIDTH 259 0
DWIDTH 5 0
BBX 3 4 1 11
BITMAP
40
a0
a0
40
ENDCHAR
STARTCHAR aogonek
ENCODING 177
SWIDTH 556 0
DWIDTH 11 0
BBX 10 14 1 -3
BITMAP
3e00
6300
4380
0380
0380
3f80
f380
e380
e380
e380
7dc0
0c00
1800
1e00
ENDCHAR
STARTCHAR ogonek
ENCODING 178
SWIDTH 617 0
DWIDTH 12 0
BBX 4 3 4 -3
BITMAP
60
c0
f0
ENDCHAR
STARTCHAR lstroke
ENCODING 179
SWIDTH 325 0
DWIDTH 7 0
BBX 7 15 0 0
BITMAP
f8
38
38
38
38
3a
3c
38
f8
b8
38
38
38
38
fe
ENDCHAR
STARTCHAR acute
ENCODING 180
SWIDTH 617 0
DWIDTH 12 0
BBX 5 3 4 12
BITMAP
38
60
c0
ENDCHAR
STARTCHAR lcaron
ENCODING 181
SWIDTH 462 0
DWIDTH 9 0
BBX 9 17 0 0
BITMAP
0380
0380
fb80
3980
3980
3b00
3800
3800
3800
3800
3800
3800
3800
3800
3800
3800
fe00
ENDCHAR
STARTCHAR sacute
ENCODING 182
SWIDTH 525 0
DWIDTH 10 0
BBX 9 15 1 0
BITMAP
0380
0600
0c00
0000
3f00
7100
e100
f000
fc00
7f00
1f80
8780
8380
c700
7e00
ENDCHAR
STARTCHAR caron
ENCODING 183
SWIDTH 617 0
DWIDTH 12 0
BBX 7 3 3 12
BITMAP
c6
6c
38
ENDCHAR
STARTCHAR cedilla
ENCODING 184
SWIDTH 617 0
DWIDTH 12 0
BBX 3 5 5 -4
BITMAP
40
c0
60
60
c0
ENDCHAR
STARTCHAR scaron
ENCODING 185
SWIDTH 525 0
DWIDTH 10 0
BBX 9 15 1 0
BITMAP
6300
3600
1c00
0000
3f00
7100
e100
f000
fc00
7f00
1f80
8780
8380
c700
7e00
ENDCHAR
STARTCHAR scedilla
ENCODING 186
SWIDTH 525 0
DWIDTH 10 0
BBX 9 16 1 -5
BITMAP
3f00
7100
e100
f000
fc00
7f00
1f80
8780
8380
c700
7e00
0800
1800
0c00
0c00
1800
ENDCHAR
STARTCHAR tcaron
ENCODING 187
SWIDTH 462 0
DWIDTH 9 0
BBX 8 18 0 0
BITMAP
07
07
07
03
33
76
70
fe
70
70
70
70
70
70
70
70
70
3e
ENDCHAR
STARTCHAR zacute
ENCODING 188
SWIDTH 584 0
DWIDTH 12 0
BBX 10 15 1 0
BITMAP
0380
0600
0c00
0000
ffc0
c3c0
8780
0700
0e00
1e00
3c00
3800
7840
f0c0
ffc0
ENDCHAR
STARTCHAR doubleacute
ENCODING 189
SWIDTH 617 0
DWIDTH 12 0
BBX 7 3 4 12
BITMAP
36
68
90
ENDCHAR
STARTCHAR zcaron
ENCODING 190
SWIDTH 584 0
DWIDTH 12 0
BBX 10 15 1 0
BITMAP
6300
3600
1c00
0000
ffc0
c3c0
8780
0700
0e00
1e00
3c00
3800
7840
f0c0
ffc0
ENDCHAR
STARTCHAR zabovedot
ENCODING 191
SWIDTH 584 0
DWIDTH 12 0
BBX 10 15 1 0
BITMAP
0c00
0c00
0c00
0000
ffc0
c3c0
8780
0700
0e00
1e00
3c00
3800
7840
f0c0
ffc0
ENDCHAR
STARTCHAR Racute
ENCODING 192
SWIDTH 720 0
DWIDTH 14 0
BBX 15 19 0 0
BITMAP
01c0
0300
0600
0000
ffc0
38e0
3870
3870
3870
3870
39e0
3fc0
3bc0
39e0
38e0
38f0
3878
387c
fc3e
ENDCHAR
STARTCHAR Aacute
ENCODING 193
SWIDTH 795 0
DWIDTH 16 0
BBX 16 19 0 0
BITMAP
00e0
0180
0300
0000
0180
0180
03c0
03c0
07e0
04e0
04f0
0870
0870
1ff8
1038
201c
201c
601e
f03f
ENDCHAR
STARTCHAR Acircumflex
ENCODING 194
SWIDTH 795 0
DWIDTH 16 0
BBX 16 19 0 0
BITMAP
01c0
0360
0630
0000
0180
0180
03c0
03c0
07e0
04e0
04f0
0870
0870
1ff8
1038
201c
201c
601e
f03f
ENDCHAR
STARTCHAR Abreve
ENCODING 195
SWIDTH 795 0
DWIDTH 16 0
BBX 16 19 0 0
BITMAP
0820
07c0
0380
0000
0180
0180
03c0
03c0
07e0
04e0
04f0
0870
0870
1ff8
1038
201c
201c
601e
f03f
ENDCHAR
STARTCHAR Adiaeresis
ENCODING 196
SWIDTH 795 0
DWIDTH 16 0
BBX 16 18 0 0
BITMAP
0660
0660
0000
0180
0180
03c0
03c0
07e0
04e0
04f0
0870
0870
1ff8
1038
201c
201c
601e
f03f
ENDCHAR
STARTCHAR Lacute
ENCODING 197
SWIDTH 584 0
DWIDTH 12 0
BBX 12 19 0 0
BITMAP
0700
0c00
1800
0000
fe00
3800
3800
3800
3800
3800
3800
3800
3800
3800
3800
3800
3830
3810
fff0
ENDCHAR
STARTCHAR Cacute
ENCODING 198
SWIDTH 711 0
DWIDTH 14 0
BBX 13 19 1 0
BITMAP
0070
00c0
0180
0000
07f0
1c18
3808
7008
e000
e000
e000
e000
e000
e000
e000
7000
3800
1c08
07f0
ENDCHAR
STARTCHAR Ccedilla
ENCODING 199
SWIDTH 711 0
DWIDTH 14 0
BBX 13 19 1 -4
BITMAP
07f0
1c18
3808
7008
e000
e000
e000
e000
e000
e000
e000
7000
3800
1c08
07f0
0200
0300
0300
0600
ENDCHAR
STARTCHAR Ccaron
ENCODING 200
SWIDTH 711 0
DWIDTH 14 0
BBX 13 19 1 0
BITMAP
0c60
06c0
0380
0000
07f0
1c18
3808
7008
e000
e000
e000
e000
e000
e000
e000
7000
3800
1c08
07f0
ENDCHAR
STARTCHAR Eacute
ENCODING 201
SWIDTH 601 0
DWIDTH 12 0
BBX 12 19 0 0
BITMAP
0380
0600
0c00
0000
ffe0
3820
3820
3800
3800
3800
3840
3fc0
3840
3800
3800
3800
3810
3830
fff0
ENDCHAR
STARTCHAR Eogonek
ENCODING 202
SWIDTH 601 0
DWIDTH 12 0
BBX 12 18 0 -3
BITMAP
ffe0
3820
3820
3800
3800
3800
3840
3fc0
3840
3800
3800
3800
3810
3830
fff0
0600
0c00
0f00
ENDCHAR
STARTCHAR Ediaeresis
ENCODING 203
SWIDTH 601 0
DWIDTH 12 0
BBX 12 18 0 0
BITMAP
1980
1980
0000
ffe0
3820
3820
3800
3800
3800
3840
3fc0
3840
3800
3800
3800
3810
3830
fff0
ENDCHAR
STARTCHAR Ecaron
ENCODING 204
SWIDTH 601 0
DWIDTH 12 0
BBX 12 19 0 0
BITMAP
3180
1b00
0e00
0000
ffe0
3820
3820
3800
3800
3800
3840
3fc0
3840
3800
3800
3800
3810
3830
fff0
ENDCHAR
STARTCHAR Iacute
ENCODING 205
SWIDTH 349 0
DWIDTH 7 0
BBX 7 19 0 0
BITMAP
0e
18
30
00
fe
38
38
38
38
38
38
38
38
38
38
38
38
38
fe
ENDCHAR
STARTCHAR Icircumflex
ENCODING 206
SWIDTH 349 0
DWIDTH 7 0
BBX 7 19 0 0
BITMAP
38
6c
c6
00
fe
38
38
38
38
38
38
38
38
38
38
38
38
38
fe
ENDCHAR
STARTCHAR Dcaron
ENCODING 207
SWIDTH 794 0
DWIDTH 16 0
BBX 15 19 0 0
BITMAP
18c0
0d80
0700
0000
ffe0
3878
381c
381c
380e
380e
380e
380e
380e
380e
380c
381c
3818
3830
ffe0
ENDCHAR
STARTCHAR Dstroke
ENCODING 208
SWIDTH 794 0
DWIDTH 16 0
BBX 15 15 0 0
BITMAP
ffe0
3878
381c
381c
380e
380e
380e
ff0e
380e
380e
380c
381c
3818
3838
ffe0
ENDCHAR
STARTCHAR Nacute
ENCODING 209
SWIDTH 788 0
DWIDTH 16 0
BBX 15 19 0 0
BITMAP
0070
00c0
0180
0000
f03e
3808
3c08
3c08
3e08
2f08
2788
2388
23c8
21e8
20e8
20f8
2078
2038
f818
ENDCHAR
STARTCHAR Ncaron
ENCODING 210
SWIDTH 788 0
DWIDTH 16 0
BBX 15 19 0 0
BITMAP
0c60
06c0
0380
0000
f03e
3808
3c08
3c08
3e08
2f08
2788
2388
23c8
21e8
20e8
20f8
2078
2038
f818
ENDCHAR
STARTCHAR Oacute
ENCODING 211
SWIDTH 810 0
DWIDTH 16 0
BBX 15 19 1 0
BITMAP
00e0
0180
0300
0000
0fe0
1c70
3018
701c
e00e
e00e
e00e
e00e
e00e
e00e
e00e
701c
3018
1c70
0fe0
ENDCHAR
STARTCHAR Ocircumflex
ENCODING 212
SWIDTH 810 0
DWIDTH 16 0
BBX 15 19 1 0
BITMAP
0380
06c0
0c60
0000
0fe0
1c70
3018
701c
e00e
e00e
e00e
e00e
e00e
e00e
e00e
701c
3018
1c70
0fe0
ENDCHAR
STARTCHAR Odoubleacute
ENCODING 213
SWIDTH 810 0
DWIDTH 16 0
BBX 15 19 1 0
BITMAP
00d8
01a0
0240
0000
0fe0
1c70
3018
701c
e00e
e00e
e00e
e00e
e00e
e00e
e00e
701c
3018
1c70
0fe0
ENDCHAR
STARTCHAR Odiaeresis
ENCODING 214
SWIDTH 810 0
DWIDTH 16 0
BBX 15 18 1 0
BITMAP
0cc0
0cc0
0000
0fe0
1c70
3018
701c
e00e
e00e
e00e
e00e
e00e
e00e
e00e
701c
3018
1c70
0fe0
ENDCHAR
STARTCHAR multiply
ENCODING 215
SWIDTH 623 0
DWIDTH 12 0
BBX 12 13 0 0
BITMAP
c010
4030
2040
1080
1980
0f00
0600
0f00
1980
1080
2040
c020
8030
ENDCHAR
STARTCHAR Rcaron
ENCODING 216
SWIDTH 720 0
DWIDTH 14 0
BBX 15 19 0 0
BITMAP
3180
1b00
0e00
0000
ffc0
38e0
3870
3870
3870
3870
39e0
3fc0
3bc0
39e0
38e0
38f0
3878
387c
fc3e
ENDCHAR
STARTCHAR Uring
ENCODING 217
SWIDTH 747 0
DWIDTH 15 0
BBX 15 19 0 0
BITMAP
0380
0280
0380
0000
fe3e
3808
3808
3808
3808
3808
3808
3808
3808
3808
3808
3808
1c10
1c10
07e0
ENDCHAR
STARTCHAR Uacute
ENCODING 218
SWIDTH 747 0
DWIDTH 15 0
BBX 15 19 0 0
BITMAP
00e0
0180
0300
0000
fe3e
3808
3808
3808
3808
3808
3808
3808
3808
3808
3808
3808
1c10
1c10
07e0
ENDCHAR
STARTCHAR Udoubleacute
ENCODING 219
SWIDTH 747 0
DWIDTH 15 0
BBX 15 19 0 0
BITMAP
00d8
01a0
0240
0000
fe3e
3808
3808
3808
3808
3808
3808
3808
3808
3808
3808
3808
1c10
1c10
07e0
ENDCHAR
STARTCHAR Udiaeresis
ENCODING 220
SWIDTH 747 0
DWIDTH 15 0
BBX 15 18 0 0
BITMAP
0cc0
0cc0
0000
fe3e
3808
3808
3808
3808
3808
3808
3808
3808
3808
3808
3808
1c10
1c10
07e0
ENDCHAR
STARTCHAR Yacute
ENCODING 221
SWIDTH 717 0
DWIDTH 14 0
BBX 15 19 0 0
BITMAP
00e0
0180
0300
0000
fe1e
780c
3c08
1c10
1e30
0f20
0740
07c0
0380
0380
0380
0380
0380
0380
0fe0
ENDCHAR
STARTCHAR Tcedilla
ENCODING 222
SWIDTH 714 0
DWIDTH 14 0
BBX 13 20 1 -5
BITMAP
fff8
c708
8708
0700
0700
0700
0700
0700
0700
0700
0700
0700
0700
0700
1fc0
0200
0600
0300
0300
0600
ENDCHAR
STARTCHAR ssharp
ENCODING 223
SWIDTH 700 0
DWIDTH 14 0
BBX 13 15 1 0
BITMAP
0f80
18e0
38e0
38e0
3880
3900
3b00
3bc0
3be0
39f0
38f8
3838
3938
3938
fdf0
ENDCHAR
STARTCHAR racute
ENCODING 224
SWIDTH 462 0
DWIDTH 9 0
BBX 9 15 0 0
BITMAP
0380
0600
0c00
0000
f980
3f80
3c80
3800
3800
3800
3800
3800
3800
3800
fe00
ENDCHAR
STARTCHAR aacute
ENCODING 225
SWIDTH 556 0
DWIDTH 11 0
BBX 10 15 1 0
BITMAP
0700
0c00
1800
0000
3e00
6300
4380
0380
0380
3f80
f380
e380
e380
e380
7dc0
ENDCHAR
STARTCHAR acircumflex
ENCODING 226
SWIDTH 556 0
DWIDTH 11 0
BBX 10 15 1 0
BITMAP
1c00
3600
6300
0000
3e00
6300
4380
0380
0380
3f80
f380
e380
e380
e380
7dc0
ENDCHAR
STARTCHAR abreve
ENCODING 227
SWIDTH 556 0
DWIDTH 11 0
BBX 10 15 1 0
BITMAP
4100
3e00
1c00
0000
3e00
6300
4380
0380
0380
3f80
f380
e380
e380
e380
7dc0
ENDCHAR
STARTCHAR adiaeresis
ENCODING 228
SWIDTH 556 0
DWIDTH 11 0
BBX 10 14 1 0
BITMAP
3300
3300
0000
3e00
6300
4380
0380
0380
3f80
f380
e380
e380
e380
7dc0
ENDCHAR
STARTCHAR lacute
ENCODING 229
SWIDTH 325 0
DWIDTH 7 0
BBX 7 19 0 0
BITMAP
0e
18
30
00
f8
38
38
38
38
38
38
38
38
38
38
38
38
38
fe
ENDCHAR
STARTCHAR cacute
ENCODING 230
SWIDTH 541 0
DWIDTH 11 0
BBX 9 15 1 0
BITMAP
0380
0600
0c00
0000
1f80
7080
6080
e000
e000
e000
e000
e000
7000
3880
1f80
ENDCHAR
STARTCHAR ccedilla
ENCODING 231
SWIDTH 541 0
DWIDTH 11 0
BBX 9 15 1 -4
BITMAP
1f80
7080
6080
e000
e000
e000
e000
e000
7000
3880
1f80
0800
0c00
0c00
1800
ENDCHAR
STARTCHAR ccaron
ENCODING 232
SWIDTH 541 0
DWIDTH 11 0
BBX 9 15 1 0
BITMAP
6300
3600
1c00
0000
1f80
7080
6080
e000
e000
e000
e000
e000
7000
3880
1f80
ENDCHAR
STARTCHAR eacute
ENCODING 233
SWIDTH 568 0
DWIDTH 11 0
BBX 10 15 0 0
BITMAP
0700
0c00
1800
0000
1f00
7380
6180
e1c0
e1c0
ffc0
e000
e000
7000
3840
1fc0
ENDCHAR
STARTCHAR eogonek
ENCODING 234
SWIDTH 568 0
DWIDTH 11 0
BBX 10 14 0 -3
BITMAP
1f00
7380
6180
e1c0
e1c0
ffc0
e000
e000
7000
3840
1fc0
0c00
1800
1e00
ENDCHAR
STARTCHAR ediaeresis
ENCODING 235
SWIDTH 568 0
DWIDTH 11 0
BBX 10 14 0 0
BITMAP
3300
3300
0000
1f00
7380
6180
e1c0
e1c0
ffc0
e000
e000
7000
3840
1fc0
ENDCHAR
STARTCHAR ecaron
ENCODING 236
SWIDTH 568 0
DWIDTH 11 0
BBX 10 15 0 0
BITMAP
6300
3600
1c00
0000
1f00
7380
6180
e1c0
e1c0
ffc0
e000
e000
7000
3840
1fc0
ENDCHAR
STARTCHAR iacute
ENCODING 237
SWIDTH 325 0
DWIDTH 7 0
BBX 7 15 0 0
BITMAP
0e
18
30
00
f8
38
38
38
38
38
38
38
38
38
fe
ENDCHAR
STARTCHAR icircumflex
ENCODING 238
SWIDTH 325 0
DWIDTH 7 0
BBX 7 15 0 0
BITMAP
38
6c
c6
00
f8
38
38
38
38
38
38
38
38
38
fe
ENDCHAR
STARTCHAR dcaron
ENCODING 239
SWIDTH 771 0
DWIDTH 15 0
BBX 15 17 0 0
BITMAP
000e
000e
03ee
00e6
00e6
00ec
1ee0
71e0
60e0
e0e0
e0e0
e0e0
e0e0
e0e0
71e0
7ef0
3cf8
ENDCHAR
STARTCHAR dstroke
ENCODING 240
SWIDTH 720 0
DWIDTH 14 0
BBX 14 15 0 0
BITMAP
03e0
00e0
07fc
00e0
1ee0
71e0
60e0
e0e0
e0e0
e0e0
e0e0
e0e0
71e0
7ef0
3cf8
ENDCHAR
STARTCHAR nacute
ENCODING 241
SWIDTH 654 0
DWIDTH 13 0
BBX 14 15 0 0
BITMAP
01c0
0300
0600
0000
f9e0
7bf0
3c70
3870
3870
3870
3870
3870
3870
3870
fffc
ENDCHAR
STARTCHAR ncaron
ENCODING 242
SWIDTH 654 0
DWIDTH 13 0
BBX 14 15 0 0
BITMAP
3180
1b00
0e00
0000
f9e0
7bf0
3c70
3870
3870
3870
3870
3870
3870
3870
fffc
ENDCHAR
STARTCHAR oacute
ENCODING 243
SWIDTH 617 0
DWIDTH 12 0
BBX 11 15 1 0
BITMAP
0380
0600
0c00
0000
1f00
71c0
71c0
e0e0
e0e0
e0e0
e0e0
e0e0
71c0
31c0
1f00
ENDCHAR
STARTCHAR ocircumflex
ENCODING 244
SWIDTH 617 0
DWIDTH 12 0
BBX 11 15 1 0
BITMAP
0e00
1b00
3180
0000
1f00
71c0
71c0
e0e0
e0e0
e0e0
e0e0
e0e0
71c0
31c0
1f00
ENDCHAR
STARTCHAR odoubleacute
ENCODING 245
SWIDTH 617 0
DWIDTH 12 0
BBX 11 15 1 0
BITMAP
0360
0680
0900
0000
1f00
71c0
71c0
e0e0
e0e0
e0e0
e0e0
e0e0
71c0
31c0
1f00
ENDCHAR
STARTCHAR odiaeresis
ENCODING 246
SWIDTH 617 0
DWIDTH 12 0
BBX 11 14 1 0
BITMAP
1980
1980
0000
1f00
71c0
71c0
e0e0
e0e0
e0e0
e0e0
e0e0
71c0
31c0
1f00
ENDCHAR
STARTCHAR division
ENCODING 247
SWIDTH 623 0
DWIDTH 12 0
BBX 12 11 0 0
BITMAP
0600
0600
0000
0000
0000
fff0
0000
0000
0000
0600
0600
ENDCHAR
STARTCHAR rcaron
ENCODING 248
SWIDTH 462 0
DWIDTH 9 0
BBX 9 15 0 0
BITMAP
6300
3600
1c00
0000
f980
3f80
3c80
3800
3800
3800
3800
3800
3800
3800
fe00
ENDCHAR
STARTCHAR uring
ENCODING 249
SWIDTH 654 0
DWIDTH 13 0
BBX 14 15 0 0
BITMAP
0e00
0a00
0e00
0000
f9f0
3870
3870
3870
3870
3870
3870
3870
38f0
3f78
1e7c
ENDCHAR
STARTCHAR uacute
ENCODING 250
SWIDTH 654 0
DWIDTH 13 0
BBX 14 15 0 0
BITMAP
01c0
0300
0600
0000
f9f0
3870
3870
3870
3870
3870
3870
3870
38f0
3f78
1e7c
ENDCHAR
STARTCHAR udoubleacute
ENCODING 251
SWIDTH 654 0
DWIDTH 13 0
BBX 14 15 0 0
BITMAP
0360
0680
0900
0000
f9f0
3870
3870
3870
3870
3870
3870
3870
38f0
3f78
1e7c
ENDCHAR
STARTCHAR udiaeresis
ENCODING 252
SWIDTH 654 0
DWIDTH 13 0
BBX 14 14 0 0
BITMAP
0cc0
0cc0
0000
f9f0
3870
3870
3870
3870
3870
3870
3870
38f0
3f78
1e7c
ENDCHAR
STARTCHAR yacute
ENCODING 253
SWIDTH 654 0
DWIDTH 13 0
BBX 13 19 0 -4
BITMAP
01c0
0300
0600
0000
fc78
7830
3820
3c40
1c40
1c80
0e80
0f00
0700
0600
0600
0400
0c00
1800
3800
ENDCHAR
STARTCHAR tcedilla
ENCODING 254
SWIDTH 389 0
DWIDTH 8 0
BBX 7 19 0 -5
BITMAP
30
70
70
fe
70
70
70
70
70
70
70
70
70
3e
10
30
18
18
30
ENDCHAR
STARTCHAR abovedot
ENCODING 255
SWIDTH 617 0
DWIDTH 12 0
BBX 2 3 5 12
BITMAP
c0
c0
c0
ENDCHAR
ENDFONT
